<svg width="16" height="16" viewBox="0 0 49 49" fill="none" xmlns="http://www.w3.org/2000/svg">
<circle cx="16.5782" cy="16.3424" r="8.16835" fill="#1F3BB0"/>
<path d="M18.2783 22.8047H17.5522V17.6568H18.2783V22.8047ZM22.5496 22.4199C22.2059 22.749 21.763 22.9136 21.2208 22.9136C20.6787 22.9136 20.2334 22.749 19.8849 22.4199C19.5412 22.0907 19.3694 21.6333 19.3694 21.0476V17.6568H20.0736V21.0258C20.0736 21.4179 20.1729 21.7204 20.3713 21.9334C20.5746 22.1464 20.8578 22.2529 21.2208 22.2529C21.5839 22.2529 21.8646 22.1464 22.0631 21.9334C22.2616 21.7204 22.3608 21.4179 22.3608 21.0258V17.6568H23.0723V21.0476C23.0723 21.6333 22.8981 22.0907 22.5496 22.4199Z" fill="white"/>
<defs>

</defs>
</svg>
